<?xml version="1.0" encoding="utf-8"?>
<!-- Generator: Adobe Illustrator 26.0.1, SVG Export Plug-In . SVG Version: 6.00 Build 0)  -->
<svg version="1.1" id="Layer_1" xmlns="http://www.w3.org/2000/svg" xmlns:xlink="http://www.w3.org/1999/xlink" x="0px" y="0px"
	 viewBox="0 0 200 200" style="enable-background:new 0 0 200 200;" xml:space="preserve">
<style type="text/css">
	.st0{fill:none;stroke:#000000;stroke-width:9;stroke-miterlimit:10;}
</style>
<polyline class="st0" points="113.51,40.42 8.1,143.16 8.1,184.26 39.97,184.26 126.19,103.96 "/>
<path class="st0" d="M149.07,82.64"/>
<line class="st0" x1="113.51" y1="40.42" x2="127.19" y2="56.67"/>
<polyline class="st0" points="156.75,40.79 136.97,15.74 114,38.41 128.41,56.66 "/>
<path class="st0" d="M128.25,57.93c6.71-9.95,17.37-16.38,29.38-16.38c20.31,0,36.77,18.4,36.77,41.1s-16.46,41.1-36.77,41.1
	s-36.77-18.4-36.77-41.1C120.86,73.37,123.61,64.81,128.25,57.93"/>
<line class="st0" x1="157.63" y1="108.62" x2="157.63" y2="56.67"/>
<line class="st0" x1="134.35" y1="82.64" x2="179.7" y2="82.64"/>
</svg>
