<svg width="2108" height="411" viewBox="0 0 2108 411" fill="none" xmlns="http://www.w3.org/2000/svg">
<path d="M0 401.685C0 404.766 2.50317 407.264 5.59099 407.264H138.055C141.143 407.264 143.646 404.766 143.646 401.685V11.1832C143.646 8.10218 141.143 5.60455 138.055 5.60455H5.591C2.50318 5.60455 0 8.10218 0 11.1832V401.685Z" fill="#3F5262"/>
<path d="M363.903 95.9961C363.903 149.013 321.028 191.992 268.139 191.992C215.25 191.992 172.375 149.013 172.375 95.9961C172.375 42.9789 215.25 0 268.139 0C321.028 0 363.903 42.9789 363.903 95.9961Z" fill="#3F5262"/>
<path d="M363.903 315.004C363.903 368.021 321.028 411 268.139 411C215.25 411 172.375 368.021 172.375 315.004C172.375 261.987 215.25 219.008 268.139 219.008C321.028 219.008 363.903 261.987 363.903 315.004Z" fill="#3F5262"/>
<path d="M622.465 95.9961C622.465 149.013 579.59 191.992 526.701 191.992C473.813 191.992 430.938 149.013 430.938 95.9961C430.938 42.9789 473.813 0 526.701 0C579.59 0 622.465 42.9789 622.465 95.9961Z" fill="#3F5262"/>
<path d="M621.981 315.004C621.981 368.021 579.106 411 526.217 411C473.328 411 430.453 368.021 430.453 315.004C430.453 261.987 473.328 219.008 526.217 219.008C579.106 219.008 621.981 261.987 621.981 315.004Z" fill="#3F5262"/>
<path d="M842.722 95.9961C842.722 149.013 799.848 191.992 746.959 191.992C694.07 191.992 651.195 149.013 651.195 95.9961C651.195 42.9789 694.07 0 746.959 0C799.848 0 842.722 42.9789 842.722 95.9961Z" fill="#3F5262"/>
<path d="M843.81 315.004C843.81 368.021 800.935 411 748.046 411C695.157 411 652.283 368.021 652.283 315.004C652.283 261.987 695.157 219.008 748.046 219.008C800.935 219.008 843.81 261.987 843.81 315.004Z" fill="#3F5262"/>
<path d="M986.141 95.9961H949.923V197.653H967.109V159.496H986.141C1007.02 159.496 1022.08 145.686 1022.08 127.319C1022.08 109.38 1008.16 95.9961 986.141 95.9961ZM984.721 145.116H967.109V110.376H984.721C997.504 110.376 1004.89 116.071 1004.89 127.461C1004.89 138.852 997.504 145.116 984.721 145.116Z" fill="#3F5262"/>
<path d="M1071.45 139.136V122.621C1059.8 123.19 1052.7 129.739 1049.86 139.706H1049.57V124.044H1033.38V197.653H1049.86V162.771C1049.86 148.248 1057.53 139.279 1071.45 139.136Z" fill="#3F5262"/>
<path d="M1114.07 199.646C1135.8 199.646 1151.85 183.985 1151.85 160.92C1151.85 137.855 1135.8 122.051 1114.07 122.051C1092.34 122.051 1076.29 137.855 1076.29 160.92C1076.29 183.985 1092.34 199.646 1114.07 199.646ZM1114.07 186.263C1101.85 186.263 1092.76 175.727 1092.76 160.92C1092.76 145.97 1102 135.577 1114.07 135.577C1126.28 135.577 1135.37 145.97 1135.37 160.92C1135.37 175.727 1126.28 186.263 1114.07 186.263Z" fill="#3F5262"/>
<path d="M1218.42 124.044V137.001H1218.28C1214.87 128.743 1206.21 122.051 1194.27 122.051C1174.11 122.051 1160.9 137.001 1160.9 159.639C1160.9 182.277 1174.11 197.084 1194.27 197.084C1206.21 197.084 1214.87 190.819 1218.28 182.561H1218.42V192.385C1218.42 206.196 1211.32 212.318 1199.81 212.318C1189.45 212.318 1182.49 208.901 1180.92 199.931H1164.73C1166.58 215.023 1180.21 225.274 1199.96 225.274C1218.99 225.274 1235.32 214.596 1235.32 190.534V124.044H1218.42ZM1178.08 159.639C1178.08 146.113 1185.61 135.577 1198.68 135.577C1211.74 135.577 1219.27 146.54 1219.27 160.066C1219.27 172.737 1213.16 183.558 1198.68 183.558C1185.47 183.558 1178.08 173.164 1178.08 159.639Z" fill="#3F5262"/>
<path d="M1290.46 139.136V122.621C1278.81 123.19 1271.71 129.739 1268.87 139.706H1268.59V124.044H1252.4V197.653H1268.87V162.771C1268.87 148.248 1276.54 139.279 1290.46 139.136Z" fill="#3F5262"/>
<path d="M1360.36 180.71V152.377C1360.36 136.574 1354.11 121.909 1329.68 121.909C1310.08 121.909 1300.56 134.438 1299.85 146.54H1315.9C1316.33 139.136 1322.01 134.723 1329.96 134.723C1338.91 134.723 1344.17 138.709 1344.17 144.831C1344.17 150.954 1340.19 152.377 1330.53 153.944C1320.02 155.652 1295.02 156.222 1295.02 177.578C1295.02 189.253 1304.4 199.504 1320.87 199.504C1334.93 199.504 1341.61 192.385 1344.17 185.694H1344.31V187.829C1344.31 191.246 1344.45 194.663 1345.02 197.653H1361.78C1360.64 193.809 1360.36 186.263 1360.36 180.71ZM1344.59 163.768C1344.59 180.141 1335.08 187.402 1324.99 187.402C1316.47 187.402 1311.36 183.131 1311.36 177.293C1311.36 170.744 1316.61 167.896 1326.7 166.046C1338.77 163.91 1342.89 160.493 1344.59 156.079V163.768Z" fill="#3F5262"/>
<path d="M1457.62 122.051C1447.11 122.051 1438.73 129.312 1436.6 137.713C1434.04 127.746 1425.94 122.051 1414.72 122.051C1403.36 122.051 1395.97 128.6 1393.7 138.994H1393.56V124.044H1377.37V197.653H1393.56V159.781C1393.56 145.401 1397.82 135.577 1408.9 135.577C1419.13 135.577 1422.39 143.408 1422.39 154.513V197.653H1438.3V159.781C1438.3 142.126 1444.41 135.577 1453.36 135.577C1463.16 135.577 1466.99 142.126 1466.99 154.513V197.653H1483.04V148.533C1483.04 131.875 1474.23 122.051 1457.62 122.051Z" fill="#3F5262"/>
<path d="M1538.92 146.113H1554.54C1552.83 130.167 1540.9 122.051 1525 122.051C1509.94 122.051 1496.87 131.021 1496.87 144.404C1496.87 157.788 1508.66 163.34 1520.45 166.046C1532.24 168.893 1539.48 170.032 1539.48 177.293C1539.48 184.127 1532.95 186.975 1525.99 186.975C1517.47 186.975 1512.5 183.273 1511.08 175.158H1494.74C1496.45 192.812 1510.65 199.646 1525.71 199.646C1541.9 199.646 1555.96 191.104 1555.96 176.439C1555.96 164.622 1546.59 158.5 1533.66 155.652C1521.3 152.804 1512.78 150.811 1512.78 143.692C1512.78 138.424 1518.32 134.58 1524.71 134.58C1531.39 134.58 1537.78 137.997 1538.92 146.113Z" fill="#3F5262"/>
<path d="M1615.22 112.512V96.2809H1598.04V112.512H1615.22ZM1598.46 197.653H1614.8V124.044H1598.46V197.653Z" fill="#3F5262"/>
<path d="M1670.23 122.051C1658.02 122.051 1650.92 129.455 1648.36 138.14V124.044H1632.03V197.653H1648.5V160.35C1648.5 142.269 1656.03 135.577 1666.12 135.577C1676.48 135.577 1680.32 143.123 1680.32 155.083V197.653H1696.65V151.665C1696.65 134.723 1689.27 122.051 1670.23 122.051Z" fill="#3F5262"/>
<path d="M981.028 279.052H949.923V380.709H981.596C1015.4 380.709 1034.43 359.353 1034.43 328.457C1034.43 298.131 1015.4 279.052 981.028 279.052ZM981.738 366.187H967.109V293.575H981.454C1002.19 293.575 1017.1 304.68 1017.1 328.457C1017.1 353.515 1002.19 366.187 981.738 366.187Z" fill="#3F5262"/>
<path d="M1064.99 295.568V279.337H1047.8V295.568H1064.99ZM1048.23 380.709H1064.56V307.1H1048.23V380.709Z" fill="#3F5262"/>
<path d="M1135.34 307.1V320.057H1135.19C1131.79 311.799 1123.12 305.107 1111.19 305.107C1091.02 305.107 1077.81 320.057 1077.81 342.695C1077.81 365.333 1091.02 380.14 1111.19 380.14C1123.12 380.14 1131.79 373.875 1135.19 365.617H1135.34V375.441C1135.34 389.252 1128.23 395.374 1116.73 395.374C1106.36 395.374 1099.4 391.957 1097.84 382.987H1081.65C1083.49 398.079 1097.13 408.33 1116.87 408.33C1135.9 408.33 1152.24 397.652 1152.24 373.59V307.1H1135.34ZM1095 342.695C1095 329.169 1102.53 318.633 1115.59 318.633C1128.66 318.633 1136.19 329.596 1136.19 343.122C1136.19 355.793 1130.08 366.614 1115.59 366.614C1102.38 366.614 1095 356.22 1095 342.695Z" fill="#3F5262"/>
<path d="M1186.21 295.568V279.337H1169.03V295.568H1186.21ZM1169.45 380.709H1185.79V307.1H1169.45V380.709Z" fill="#3F5262"/>
<path d="M1238.52 319.914V307.1H1224.17V282.612H1223.61L1207.84 290.585V307.1H1196.48V319.914H1207.84V357.359C1207.84 370.316 1213.09 380.709 1229.14 380.709H1236.96V368.038H1232.55C1226.3 368.038 1224.17 362.77 1224.17 355.366V319.914H1238.52Z" fill="#3F5262"/>
<path d="M1312.09 363.766V335.433C1312.09 319.63 1305.84 304.965 1281.41 304.965C1261.81 304.965 1252.29 317.494 1251.58 329.596H1267.63C1268.06 322.192 1273.74 317.779 1281.69 317.779C1290.64 317.779 1295.9 321.765 1295.9 327.887C1295.9 334.01 1291.92 335.433 1282.26 337C1271.75 338.708 1246.75 339.278 1246.75 360.634C1246.75 372.309 1256.13 382.56 1272.6 382.56C1286.67 382.56 1293.34 375.441 1295.9 368.75H1296.04V370.885C1296.04 374.302 1296.18 377.719 1296.75 380.709H1313.51C1312.37 376.865 1312.09 369.319 1312.09 363.766ZM1296.32 346.824C1296.32 363.197 1286.81 370.458 1276.72 370.458C1268.2 370.458 1263.09 366.187 1263.09 360.349C1263.09 353.8 1268.34 350.952 1278.43 349.102C1290.5 346.966 1294.62 343.549 1296.32 339.135V346.824Z" fill="#3F5262"/>
<path d="M1329.11 279.052V380.709H1345.59V279.052H1329.11Z" fill="#3F5262"/>
<path d="M1456.67 279.052V322.477H1411.93V279.052H1394.75V380.709H1411.93V337H1456.67V380.709H1473.86V279.052H1456.67Z" fill="#3F5262"/>
<path d="M1540.07 307.1V344.403C1540.07 362.485 1532.4 369.177 1522.32 369.177C1511.95 369.177 1508.25 361.631 1508.25 349.671V307.1H1491.78V353.088C1491.78 370.031 1499.16 382.703 1518.34 382.703C1530.41 382.703 1537.51 375.299 1540.07 366.614V380.709H1556.4V307.1H1540.07Z" fill="#3F5262"/>
<path d="M1653.74 305.107C1643.23 305.107 1634.85 312.368 1632.72 320.769C1630.17 310.802 1622.07 305.107 1610.85 305.107C1599.49 305.107 1592.1 311.656 1589.83 322.05H1589.69V307.1H1573.49V380.709H1589.69V342.837C1589.69 328.457 1593.95 318.633 1605.03 318.633C1615.25 318.633 1618.52 326.464 1618.52 337.569V380.709H1634.43V342.837C1634.43 325.182 1640.53 318.633 1649.48 318.633C1659.28 318.633 1663.12 325.182 1663.12 337.569V380.709H1679.17V331.589C1679.17 314.931 1670.36 305.107 1653.74 305.107Z" fill="#3F5262"/>
<path d="M1756.77 363.766V335.433C1756.77 319.63 1750.52 304.965 1726.09 304.965C1706.49 304.965 1696.98 317.494 1696.27 329.596H1712.32C1712.74 322.192 1718.42 317.779 1726.38 317.779C1735.33 317.779 1740.58 321.765 1740.58 327.887C1740.58 334.01 1736.6 335.433 1726.95 337C1716.44 338.708 1691.44 339.278 1691.44 360.634C1691.44 372.309 1700.81 382.56 1717.29 382.56C1731.35 382.56 1738.02 375.441 1740.58 368.75H1740.72V370.885C1740.72 374.302 1740.87 377.719 1741.43 380.709H1758.19C1757.06 376.865 1756.77 369.319 1756.77 363.766ZM1741.01 346.824C1741.01 363.197 1731.49 370.458 1721.41 370.458C1712.89 370.458 1707.77 366.187 1707.77 360.349C1707.77 353.8 1713.03 350.952 1723.11 349.102C1735.18 346.966 1739.3 343.549 1741.01 339.135V346.824Z" fill="#3F5262"/>
<path d="M1811.99 305.107C1799.77 305.107 1792.67 312.511 1790.12 321.196V307.1H1773.78V380.709H1790.26V343.406C1790.26 325.325 1797.79 318.633 1807.87 318.633C1818.24 318.633 1822.07 326.179 1822.07 338.139V380.709H1838.41V334.721C1838.41 317.779 1831.02 305.107 1811.99 305.107Z" fill="#3F5262"/>
<path d="M1871.55 295.568V279.337H1854.36V295.568H1871.55ZM1854.79 380.709H1871.12V307.1H1854.79V380.709Z" fill="#3F5262"/>
<path d="M1923.85 319.914V307.1H1909.51V282.612H1908.94L1893.17 290.585V307.1H1881.81V319.914H1893.17V357.359C1893.17 370.316 1898.43 380.709 1914.48 380.709H1922.29V368.038H1917.89C1911.64 368.038 1909.51 362.77 1909.51 355.366V319.914H1923.85Z" fill="#3F5262"/>
<path d="M1952.97 295.568V279.337H1935.78V295.568H1952.97ZM1936.21 380.709H1952.54V307.1H1936.21V380.709Z" fill="#3F5262"/>
<path d="M2038.23 345.257C2038.09 324.47 2027.86 305.107 2002.86 305.107C1981.42 305.107 1965.79 321.338 1965.79 343.691C1965.79 366.899 1980.85 382.703 2002.86 382.703C2020.19 382.703 2032.83 373.875 2037.24 358.926H2020.9C2018.2 366.329 2011.24 369.461 2002.86 369.461C1991.36 369.461 1982.84 361.773 1981.7 348.39H2038.23V345.257ZM1981.99 336.43C1983.69 325.182 1991.36 317.921 2002.72 317.921C2014.09 317.921 2020.76 324.897 2021.9 336.43H1981.99Z" fill="#3F5262"/>
<path d="M2090.96 329.169H2106.58C2104.88 313.223 2092.94 305.107 2077.04 305.107C2061.98 305.107 2048.91 314.077 2048.91 327.46C2048.91 340.844 2060.7 346.396 2072.49 349.102C2084.28 351.949 2091.52 353.088 2091.52 360.349C2091.52 367.183 2084.99 370.031 2078.03 370.031C2069.51 370.031 2064.54 366.329 2063.12 358.214H2046.78C2048.49 375.868 2062.69 382.703 2077.75 382.703C2093.94 382.703 2108 374.16 2108 359.495C2108 347.678 2098.63 341.556 2085.7 338.708C2073.34 335.861 2064.82 333.867 2064.82 326.748C2064.82 321.48 2070.36 317.636 2076.75 317.636C2083.43 317.636 2089.82 321.053 2090.96 329.169Z" fill="#3F5262"/>
</svg>
