<svg xmlns="http://www.w3.org/2000/svg" viewBox="0 0 2104.82 411"><defs><style>.cls-1{fill:#3f5262;}</style></defs><g id="Layer_2" data-name="Layer 2"><g id="Layer_1-2" data-name="Layer 1"><path class="cls-1" d="M1035.2,146.14c0,30.68-19.52,54.17-53,54.17H949.77V95.5h31.56C1015.68,95.5,1035.2,115.46,1035.2,146.14Zm-14,0c0-26.86-17.32-38.9-39.19-38.9H963.71v81.32h18.94C1003.93,188.56,1021.25,174.18,1021.25,146.14Z"/><path class="cls-1" d="M1050.17,110.77V96.09h14.09v14.68Zm.44,13.65h13.21v75.89h-13.21Z"/><path class="cls-1" d="M1152.77,124.42v70c0,22.46-15.56,34.93-34.34,34.93S1085,220,1083.34,203.54h13.21c1.47,10.86,9.84,14.68,21.88,14.68s21.13-6.61,21.13-23.78V183.72h-.14c-2.5,8.66-10.72,16.88-25.54,16.88-21.73,0-35.23-16.44-35.23-39.19s13.5-38.75,35.23-38.75c14.82,0,23,8.51,25.54,17.17h.14V124.42Zm-36.84,64.88c18.64,0,24.07-13.65,24.07-27.16,0-14.82-7.78-28.33-24.07-28.33s-24.07,12.77-24.07,27.6S1099.34,189.3,1115.93,189.3Z"/><path class="cls-1" d="M1171.27,110.77V96.09h14.09v14.68Zm.44,13.65h13.21v75.89h-13.21Z"/><path class="cls-1" d="M1221,135.28V179c0,6,2.79,10.72,8.22,10.72h4.7v10.57h-6c-13.51,0-19.82-9.84-19.82-20.41V135.28h-11.3V124.42h11.3V105.78l12.48-5.88h.44v24.52h14.53v10.86Z"/><path class="cls-1" d="M1296.92,189.3v-2.94h-.15c-1.76,5.87-8.07,15.71-25,15.71-18.21,0-26.57-11.6-26.57-22.46,0-22.31,27-22.16,38.46-24.22,10-1.76,13.21-4.55,13.21-10.86s-6-10.86-16.88-10.86c-9.25,0-15.86,5.13-16.44,13.65h-13.22c.45-11.31,9.4-24.81,29.22-24.81,27.89,0,30.53,18,30.53,29.8V184.9a107.65,107.65,0,0,0,1.17,15.41h-14.09C1296.92,196.64,1296.92,193.56,1296.92,189.3Zm.29-24.22V155h-.29c-1.47,4.84-5,9.1-21,11.89-11,1.91-17.62,4.26-17.62,12.77,0,7.19,6.61,11.74,15.86,11.74C1285.76,191.35,1297.21,183.87,1297.21,165.08Z"/><path class="cls-1" d="M1341.83,95.5V200.31h-13.21V95.5Z"/><path class="cls-1" d="M1472.18,95.5V200.31h-13.94V153.63h-50.5v46.68h-14V95.5h14v46.39h50.5V95.5Z"/><path class="cls-1" d="M1555.26,124.42v75.89h-13.21V184.9h-.15c-2.05,8.66-9.83,17.17-22.6,17.17-20,0-27.45-13.06-27.45-28.48V124.42h13.21v47.85c0,13.36,5.72,18.64,16,18.64,11.15,0,21-6.45,21-26.27V124.42Z"/><path class="cls-1" d="M1677.09,151.13v49.18h-13.21V152.45c0-12.47-4.84-18.64-14.68-18.64-9.24,0-16.88,5.87-16.88,26.28v40.22h-13.06V152.45c0-12.47-4.7-18.64-14.39-18.64-10.42,0-17.61,6.46-17.61,26.28v40.22h-13.21V124.42h13.21v15.41h.14c1.77-8.66,8.67-17.17,20.7-17.17,12.92,0,19.82,6,22.61,16h.29c2.2-7.78,10.42-16,21.29-16C1670.63,122.66,1677.09,135.72,1677.09,151.13Z"/><path class="cls-1" d="M1742.56,189.3v-2.94h-.15c-1.76,5.87-8.07,15.71-25,15.71-18.2,0-26.57-11.6-26.57-22.46,0-22.31,27-22.16,38.46-24.22,10-1.76,13.21-4.55,13.21-10.86s-6-10.86-16.88-10.86c-9.25,0-15.85,5.13-16.44,13.65H1696c.44-11.31,9.39-24.81,29.21-24.81,27.89,0,30.53,18,30.53,29.8V184.9a107.65,107.65,0,0,0,1.17,15.41h-14.09C1742.56,196.64,1742.56,193.56,1742.56,189.3Zm.29-24.22V155h-.29c-1.47,4.84-5,9.1-21,11.89-11,1.91-17.62,4.26-17.62,12.77,0,7.19,6.61,11.74,15.86,11.74C1731.4,191.35,1742.85,183.87,1742.85,165.08Z"/><path class="cls-1" d="M1837.68,151.13v49.18h-13.21V152.45c0-13.35-5.73-18.64-16-18.64-11.16,0-21,6.46-21,26.28v40.22h-13.21V124.42h13.21v15.41h.15c2.06-8.66,9.84-17.17,22.61-17.17C1830.19,122.66,1837.68,135.72,1837.68,151.13Z"/><path class="cls-1" d="M1855.29,110.77V96.09h14.09v14.68Zm.44,13.65h13.21v75.89h-13.21Z"/><path class="cls-1" d="M1905.05,135.28V179c0,6,2.79,10.72,8.22,10.72h4.7v10.57h-6c-13.51,0-19.82-9.84-19.82-20.41V135.28h-11.3V124.42h11.3V105.78l12.48-5.88h.44v24.52h14.53v10.86Z"/><path class="cls-1" d="M1933.08,110.77V96.09h14.1v14.68Zm.44,13.65h13.22v75.89h-13.22Z"/><path class="cls-1" d="M2033.93,166h-59.6c1,15.85,10.71,25.1,24.22,25.1,10.13,0,18.64-4,21.28-13.36h12.92c-4.25,16.15-17,24.37-33.91,24.37-22.46,0-37.28-16.29-37.28-40.07,0-22.9,15.56-39.34,37-39.34,26.72,0,35.08,21.43,35.38,41Zm-13.36-10.57c-1.18-13.21-8.52-21.87-22-21.87s-22.31,8.81-24.07,21.87Z"/><path class="cls-1" d="M2073.7,133.81c-7.19,0-14.38,4.11-14.38,10.57,0,8.81,12.18,11,22.46,13.36,11.15,2.49,23,8.22,23,20.84,0,16.15-16.88,23.49-30.09,23.49-12.77,0-29.5-5.87-30.82-24.66h13.21c1.76,9.69,7.78,13.5,18.05,13.5,7.49,0,16.44-2.79,16.44-11.59,0-8.52-10.57-9.54-20.7-11.89-9.54-2.2-24.8-7.64-24.8-22.46,0-14.24,14.68-22.31,28-22.31,14.83,0,27.89,7.92,29.36,24.66h-13.06C2089.56,137.48,2081.34,133.81,2073.7,133.81Z"/><path class="cls-1" d="M1014.65,364.71v11.74H949.77V271.65h13.94v93.06Z"/><path class="cls-1" d="M1075.12,365.45v-2.94H1075c-1.76,5.87-8.08,15.71-25,15.71-18.2,0-26.56-11.6-26.56-22.46,0-22.32,27-22.17,38.45-24.22,10-1.76,13.21-4.55,13.21-10.87s-6-10.86-16.88-10.86c-9.24,0-15.85,5.14-16.44,13.65h-13.21c.44-11.3,9.4-24.8,29.21-24.8,27.89,0,30.54,18,30.54,29.79V361a106.09,106.09,0,0,0,1.17,15.41h-14.09C1075.12,372.78,1075.12,369.7,1075.12,365.45Zm.3-24.23V331.1h-.3c-1.46,4.84-5,9.1-21,11.89-11,1.9-17.61,4.25-17.61,12.77,0,7.19,6.6,11.74,15.85,11.74C1064,367.5,1075.42,360,1075.42,341.22Z"/><path class="cls-1" d="M1181,338.29c0,23.49-13.21,39.93-34.64,39.93-13.8,0-23.34-9.11-26.13-16.89H1120v15.12h-13.21V271.65H1120V316h.15c2.79-7.93,12.33-17.18,26.13-17.18C1167.75,298.8,1181,314.8,1181,338.29Zm-13.21,0c0-16.44-8.52-28.33-24.08-28.33-16.44,0-24.07,13.5-24.07,28.33s7.63,28.62,24.07,28.62C1159.67,366.91,1167.75,354.73,1167.75,338.29Z"/><path class="cls-1" d="M0,401.68a5.58,5.58,0,0,0,5.59,5.58H138.05a5.59,5.59,0,0,0,5.6-5.58V11.18a5.59,5.59,0,0,0-5.6-5.58H5.59A5.58,5.58,0,0,0,0,11.18Z"/><path class="cls-1" d="M363.9,96A95.76,95.76,0,1,1,268.14,0,95.88,95.88,0,0,1,363.9,96Z"/><path class="cls-1" d="M363.9,315a95.76,95.76,0,1,1-95.76-96A95.88,95.88,0,0,1,363.9,315Z"/><path class="cls-1" d="M622.47,96A95.77,95.77,0,1,1,526.7,0,95.88,95.88,0,0,1,622.47,96Z"/><path class="cls-1" d="M622,315a95.77,95.77,0,1,1-95.76-96A95.88,95.88,0,0,1,622,315Z"/><path class="cls-1" d="M842.72,96A95.76,95.76,0,1,1,747,0,95.88,95.88,0,0,1,842.72,96Z"/><path class="cls-1" d="M843.81,315a95.77,95.77,0,1,1-95.76-96A95.88,95.88,0,0,1,843.81,315Z"/></g></g></svg>