<?xml version="1.0" encoding="utf-8"?>
<!-- Generator: Adobe Illustrator 16.0.0, SVG Export Plug-In . SVG Version: 6.00 Build 0)  -->
<!DOCTYPE svg PUBLIC "-//W3C//DTD SVG 1.1//EN" "http://www.w3.org/Graphics/SVG/1.1/DTD/svg11.dtd">
<svg version="1.1" id="Layer_1" xmlns="http://www.w3.org/2000/svg" xmlns:xlink="http://www.w3.org/1999/xlink" x="0px" y="0px"
	 width="180.619px" height="42.725px" viewBox="0 0 180.619 42.725" enable-background="new 0 0 180.619 42.725"
	 xml:space="preserve">
<g>
	<g>
		<rect x="52" y="1.783" fill="#231F20" width="20" height="8"/>
		<rect x="13" y="1.783" fill="#231F20" width="8" height="26"/>
		<rect x="26" y="1.783" fill="#231F20" width="8" height="38"/>
		<rect y="1.783" fill="#231F20" width="8" height="38"/>
		<rect x="52" y="14.783" fill="#231F20" width="8" height="25"/>
		<rect x="39" y="1.783" fill="#231F20" width="8" height="8"/>
		<rect x="39" y="14.783" fill="#A41F35" width="8" height="25"/>
	</g>
	<g>
		<path fill="#010101" d="M89.032,1.802h3.262l1.574,6.611h0.025l1.624-6.611h3.225V10.7h-2.1V3.789h-0.025L94.855,10.7h-1.962
			l-1.812-6.911h-0.025V10.7h-2.024V1.802z"/>
		<path fill="#010101" d="M106.043,9.312c0,0.462,0.013,0.975,0.175,1.387h-1.8c-0.074-0.225-0.111-0.462-0.125-0.688h-0.024
			c-0.325,0.525-1.3,0.862-1.999,0.862c-1.275,0-2.225-0.7-2.225-1.975c0-1.6,1.287-2.162,3.411-2.461l0.712-0.1v-0.55
			c0-0.5-0.399-0.712-0.924-0.712c-0.625,0-0.926,0.225-1.025,0.887h-1.875c0.062-1.912,1.838-2.087,2.737-2.087
			c1.812,0,2.95,0.425,2.962,1.924V9.312z M104.168,7.463l-1.312,0.375c-0.487,0.138-0.938,0.325-0.938,0.862
			c0,0.525,0.438,0.75,0.913,0.75c0.762,0,1.336-0.513,1.336-1.525V7.463z"/>
		<path fill="#010101" d="M112.155,6.013c-0.388-0.462-1.225-0.712-1.837-0.712c-0.487,0-0.838,0.175-0.838,0.512
			c0,1.137,3.938,0.2,3.938,2.687c0,1.75-1.55,2.374-3,2.374c-1.449,0-2.273-0.412-3.248-1.312l1.211-1.05
			c0.601,0.575,1.213,0.938,2.1,0.938c0.325,0,1.062-0.075,1.062-0.675c0-1.038-3.937-0.213-3.937-2.575
			c0-1.674,1.462-2.324,2.812-2.324c1.025,0,2.037,0.362,2.938,0.962L112.155,6.013z"/>
		<path fill="#010101" d="M119.105,6.013c-0.387-0.462-1.225-0.712-1.837-0.712c-0.487,0-0.837,0.175-0.837,0.512
			c0,1.137,3.936,0.2,3.936,2.687c0,1.75-1.549,2.374-2.998,2.374c-1.45,0-2.275-0.412-3.25-1.312l1.213-1.05
			c0.6,0.575,1.212,0.938,2.1,0.938c0.324,0,1.062-0.075,1.062-0.675c0-1.038-3.937-0.213-3.937-2.575
			c0-1.674,1.463-2.324,2.812-2.324c1.024,0,2.037,0.362,2.936,0.962L119.105,6.013z"/>
		<path fill="#010101" d="M127.355,9.312c0,0.462,0.013,0.975,0.175,1.387h-1.8c-0.074-0.225-0.111-0.462-0.125-0.688h-0.024
			c-0.325,0.525-1.3,0.862-1.999,0.862c-1.275,0-2.225-0.7-2.225-1.975c0-1.6,1.287-2.162,3.411-2.461l0.712-0.1v-0.55
			c0-0.5-0.399-0.712-0.924-0.712c-0.625,0-0.926,0.225-1.025,0.887h-1.875c0.062-1.912,1.838-2.087,2.737-2.087
			c1.812,0,2.95,0.425,2.962,1.924V9.312z M125.48,7.463l-1.312,0.375c-0.487,0.138-0.938,0.325-0.938,0.862
			c0,0.525,0.438,0.75,0.913,0.75c0.762,0,1.336-0.513,1.336-1.525V7.463z"/>
		<path fill="#010101" d="M133.468,6.288c-0.35-0.75-0.95-0.912-1.249-0.912c-1.113,0-1.513,0.862-1.513,2s0.476,2,1.513,2
			c0.6,0,1.074-0.225,1.387-0.975l1.399,0.712c-0.6,1.062-1.687,1.762-2.962,1.762c-1.986,0-3.361-1.262-3.361-3.499
			c0-2.199,1.462-3.499,3.299-3.499c1.263,0,2.35,0.462,2.987,1.625L133.468,6.288z"/>
		<path fill="#010101" d="M136.107,1.802h1.949v2.875h0.024c0.375-0.513,1.212-0.8,1.825-0.8c1.399,0,2.086,0.812,2.086,2.149V10.7
			h-1.949V6.713c0-1.025-0.55-1.262-0.975-1.262c-0.449,0-1.012,0.287-1.012,1.524V10.7h-1.949V1.802z"/>
		<path fill="#010101" d="M149.63,10.7h-1.949v-0.587c-0.5,0.587-1.325,0.762-1.925,0.762c-1.574,0-2.012-0.912-2.012-1.912V4.051
			h1.949V8.4c0,0.587,0.213,0.9,0.949,0.9c0.562,0,1.038-0.312,1.038-1.038V4.051h1.949V10.7z"/>
		<path fill="#010101" d="M155.692,6.013c-0.388-0.462-1.225-0.712-1.837-0.712c-0.487,0-0.838,0.175-0.838,0.512
			c0,1.137,3.938,0.2,3.938,2.687c0,1.75-1.55,2.374-3,2.374c-1.449,0-2.273-0.412-3.248-1.312l1.211-1.05
			c0.601,0.575,1.213,0.938,2.1,0.938c0.325,0,1.062-0.075,1.062-0.675c0-1.038-3.937-0.213-3.937-2.575
			c0-1.674,1.462-2.324,2.812-2.324c1.025,0,2.037,0.362,2.938,0.962L155.692,6.013z"/>
		<path fill="#010101" d="M159.807,7.775c0.012,1.275,0.824,1.675,1.449,1.675c0.725,0,1.062-0.375,1.625-1.175l1.461,0.762
			c-0.674,1.25-1.736,1.837-3.224,1.837c-2.062,0-3.262-1.424-3.262-3.299c0-2.35,1.237-3.699,3.262-3.699
			c2.425,0,3.249,1.85,3.262,3.899H159.807z M162.43,6.576c-0.062-0.975-0.762-1.274-1.324-1.274s-1.236,0.399-1.324,1.274H162.43z"
			/>
		<path fill="#010101" d="M169.03,5.376h-1.163v3.262c0,0.525,0.264,0.663,0.613,0.663c0.213,0,0.487-0.025,0.588-0.038V10.8
			c-0.25,0.025-0.826,0.075-1.25,0.075c-1.662,0-1.9-1.037-1.9-2V5.376h-0.949v-1.2h0.949V2.252h1.949v1.924h1.163V5.376z"/>
		<path fill="#010101" d="M173.43,5.376h-1.162v3.262c0,0.525,0.263,0.663,0.613,0.663c0.212,0,0.486-0.025,0.586-0.038V10.8
			c-0.249,0.025-0.824,0.075-1.249,0.075c-1.662,0-1.899-1.037-1.899-2V5.376h-0.949v-1.2h0.949V2.252h1.949v1.924h1.162V5.376z"/>
		<path fill="#010101" d="M178.854,6.013c-0.388-0.462-1.225-0.712-1.837-0.712c-0.487,0-0.838,0.175-0.838,0.512
			c0,1.137,3.938,0.2,3.938,2.687c0,1.75-1.55,2.374-3,2.374c-1.449,0-2.273-0.412-3.248-1.312l1.211-1.05
			c0.601,0.575,1.213,0.938,2.1,0.938c0.325,0,1.062-0.075,1.062-0.675c0-1.038-3.937-0.213-3.937-2.575
			c0-1.674,1.462-2.324,2.812-2.324c1.025,0,2.037,0.362,2.938,0.962L178.854,6.013z"/>
		<path fill="#010101" d="M89.082,16.352h2.225v8.898h-2.225V16.352z"/>
		<path fill="#010101" d="M93.044,18.601h1.95v0.587c0.5-0.587,1.324-0.762,1.924-0.762c1.574,0,2.012,0.912,2.012,1.912v4.912
			H96.98v-4.162c0-0.65-0.199-1.087-0.949-1.087c-0.787,0-1.037,0.512-1.037,1.112v4.137h-1.95V18.601z"/>
		<path fill="#010101" d="M104.992,20.563c-0.387-0.462-1.225-0.712-1.836-0.712c-0.488,0-0.838,0.175-0.838,0.512
			c0,1.137,3.937,0.2,3.937,2.688c0,1.749-1.55,2.373-2.999,2.373s-2.274-0.412-3.25-1.312l1.213-1.05
			c0.6,0.574,1.213,0.938,2.1,0.938c0.324,0,1.062-0.075,1.062-0.675c0-1.038-3.938-0.213-3.938-2.575
			c0-1.674,1.463-2.324,2.812-2.324c1.025,0,2.037,0.362,2.937,0.962L104.992,20.563z"/>
		<path fill="#010101" d="M110.918,19.926h-1.162v3.262c0,0.525,0.263,0.662,0.613,0.662c0.212,0,0.486-0.025,0.586-0.037v1.537
			c-0.249,0.025-0.824,0.074-1.249,0.074c-1.662,0-1.899-1.037-1.899-1.999v-3.499h-0.949v-1.2h0.949v-1.924h1.949v1.924h1.162
			V19.926z"/>
		<path fill="#010101" d="M112.031,17.851v-1.5h1.949v1.5H112.031z M113.98,18.601v6.649h-1.949v-6.649H113.98z"/>
		<path fill="#010101" d="M119.018,19.926h-1.162v3.262c0,0.525,0.263,0.662,0.613,0.662c0.212,0,0.486-0.025,0.586-0.037v1.537
			c-0.249,0.025-0.824,0.074-1.249,0.074c-1.662,0-1.899-1.037-1.899-1.999v-3.499h-0.949v-1.2h0.949v-1.924h1.949v1.924h1.162
			V19.926z"/>
		<path fill="#010101" d="M126.018,25.25h-1.949v-0.588c-0.5,0.588-1.325,0.762-1.926,0.762c-1.574,0-2.012-0.912-2.012-1.912
			v-4.911h1.949v4.349c0,0.587,0.213,0.899,0.95,0.899c0.562,0,1.038-0.312,1.038-1.037v-4.211h1.949V25.25z"/>
		<path fill="#010101" d="M131.055,19.926h-1.162v3.262c0,0.525,0.263,0.662,0.613,0.662c0.212,0,0.486-0.025,0.586-0.037v1.537
			c-0.249,0.025-0.824,0.074-1.249,0.074c-1.662,0-1.899-1.037-1.899-1.999v-3.499h-0.949v-1.2h0.949v-1.924h1.949v1.924h1.162
			V19.926z"/>
		<path fill="#010101" d="M133.643,22.325C133.655,23.6,134.468,24,135.092,24c0.726,0,1.062-0.375,1.625-1.175l1.463,0.763
			c-0.676,1.249-1.737,1.836-3.225,1.836c-2.062,0-3.262-1.424-3.262-3.299c0-2.349,1.237-3.699,3.262-3.699
			c2.424,0,3.249,1.85,3.262,3.899H133.643z M136.268,21.125c-0.062-0.975-0.763-1.274-1.325-1.274
			c-0.562,0-1.237,0.399-1.325,1.274H136.268z"/>
		<path fill="#010101" d="M149.654,21.925c0,2.237-1.463,3.499-3.537,3.499s-3.537-1.262-3.537-3.499s1.463-3.499,3.537-3.499
			S149.654,19.688,149.654,21.925z M144.53,21.925c0,1.137,0.475,2,1.587,2s1.587-0.862,1.587-2.075
			c0-1.062-0.475-1.924-1.587-1.924S144.53,20.788,144.53,21.925z"/>
		<path fill="#010101" d="M151.18,19.926h-1.023v-1.2h1.023v-0.65c0-0.75,0.238-1.825,1.9-1.825c0.425,0,1.024,0.062,1.274,0.15
			v1.424h-0.55c-0.338,0-0.675,0.1-0.675,0.475v0.425h1.2v1.2h-1.2v5.324h-1.95V19.926z"/>
		<path fill="#010101" d="M86.77,30.902h6.874v1.725h-2.325V39.8h-2.224v-7.173H86.77V30.902z"/>
		<path fill="#010101" d="M95.219,36.875c0.013,1.275,0.825,1.676,1.449,1.676c0.726,0,1.062-0.375,1.625-1.176l1.463,0.763
			c-0.676,1.249-1.737,1.837-3.225,1.837c-2.062,0-3.262-1.424-3.262-3.299c0-2.35,1.237-3.699,3.262-3.699
			c2.424,0,3.249,1.85,3.262,3.898H95.219z M97.844,35.676c-0.062-0.975-0.763-1.275-1.325-1.275c-0.562,0-1.237,0.4-1.325,1.275
			H97.844z"/>
		<path fill="#010101" d="M105.468,35.389c-0.35-0.75-0.95-0.912-1.249-0.912c-1.113,0-1.513,0.861-1.513,1.999
			s0.476,1.999,1.513,1.999c0.6,0,1.074-0.225,1.387-0.975l1.399,0.713c-0.6,1.062-1.687,1.762-2.962,1.762
			c-1.986,0-3.361-1.262-3.361-3.499c0-2.199,1.462-3.499,3.299-3.499c1.263,0,2.35,0.463,2.987,1.625L105.468,35.389z"/>
		<path fill="#010101" d="M108.107,30.902h1.949v2.874h0.024c0.375-0.513,1.212-0.8,1.825-0.8c1.399,0,2.086,0.812,2.086,2.149V39.8
			h-1.949v-3.986c0-1.024-0.55-1.263-0.975-1.263c-0.449,0-1.012,0.287-1.012,1.525V39.8h-1.949V30.902z"/>
		<path fill="#010101" d="M115.744,33.151h1.949v0.587c0.5-0.587,1.324-0.762,1.925-0.762c1.574,0,2.012,0.912,2.012,1.912V39.8
			h-1.949v-4.161c0-0.65-0.2-1.088-0.95-1.088c-0.787,0-1.037,0.513-1.037,1.112V39.8h-1.949V33.151z"/>
		<path fill="#010101" d="M129.979,36.476c0,2.237-1.462,3.499-3.536,3.499c-2.075,0-3.537-1.262-3.537-3.499
			s1.462-3.499,3.537-3.499C128.518,32.977,129.979,34.238,129.979,36.476z M124.855,36.476c0,1.138,0.475,1.999,1.588,1.999
			c1.111,0,1.586-0.861,1.586-2.074c0-1.062-0.475-1.924-1.586-1.924C125.33,34.477,124.855,35.338,124.855,36.476z"/>
		<path fill="#010101" d="M131.256,39.8v-8.897h1.949V39.8H131.256z"/>
		<path fill="#010101" d="M141.555,36.476c0,2.237-1.463,3.499-3.537,3.499s-3.537-1.262-3.537-3.499s1.463-3.499,3.537-3.499
			S141.555,34.238,141.555,36.476z M136.431,36.476c0,1.138,0.475,1.999,1.587,1.999s1.587-0.861,1.587-2.074
			c0-1.062-0.475-1.924-1.587-1.924S136.431,35.338,136.431,36.476z"/>
		<path fill="#010101" d="M148.667,33.151v6.661c0,2.111-2.162,2.188-3.187,2.188c-2,0-3.049-0.676-3.062-2.301h2.025
			c0.012,0.726,0.424,1.025,1.125,1.025c0.749,0,1.211-0.15,1.211-1.125v-0.762c-0.424,0.412-1.249,0.549-1.836,0.549
			c-1.863,0-2.588-1.499-2.588-3.174c0-1.625,0.85-3.236,2.612-3.236c0.726,0,1.35,0.162,1.899,0.699v-0.524H148.667z M145.53,34.4
			c-0.612,0-1.225,0.351-1.225,1.787c0,0.801,0.175,1.775,1.2,1.775c1.249,0,1.287-1.088,1.287-1.775
			C146.793,34.838,146.13,34.4,145.53,34.4z"/>
		<path fill="#010101" d="M150.105,40.475c0.225,0.013,0.45,0.025,0.662,0.025c0.588,0,0.9-0.113,0.9-0.488
			c0-0.1-0.013-0.212-0.176-0.712l-1.949-6.148h2.05l1.075,5.073h0.024l1.087-5.073h2.112l-2.337,7.086
			C153.217,41.25,152.793,42,151.643,42h-1.537V40.475z"/>
	</g>
</g>
</svg>
