<svg xmlns="http://www.w3.org/2000/svg" viewBox="0 0 185.08 151.43">
    <path class="cls-1"
          d="M92.54,0,0,70.67,10.18,84,25.24,72.52v78.91h134.6V72.52L174.9,84l10.18-13.29ZM55.88,95.7a5.24,5.24,0,0,1-10.47,0V90.84a5.25,5.25,0,0,1,5.19-5.23h0a5.24,5.24,0,0,1,5.28,5.25ZM76.8,110.83a5.24,5.24,0,0,1-10.48,0l.08-35.46a5.24,5.24,0,0,1,10.47,0ZM97.71,126a5.24,5.24,0,1,1-10.47,0l.13-66.06a5.24,5.24,0,1,1,10.47,0Zm21-15.49a5.22,5.22,0,0,1-5.19,5.22h0a5.23,5.23,0,0,1-5.28-5.24L108.28,75a5.24,5.24,0,1,1,10.47,0Zm21-15.49a5.24,5.24,0,1,1-10.48,0V90.13a5.24,5.24,0,1,1,10.48,0Z"/>
</svg>
