<svg width="72" height="63" viewBox="0 0 72 63" fill="none" xmlns="http://www.w3.org/2000/svg">
    <path
        d="M63.4 36C66.7333 37.0667 68.8667 38.5333 69.8 40.4C70.8667 42.2667 71.4 45.4 71.4 49.8C71 58.3333 65.8 62.4 55.8 62C51.2667 61.2 47.8667 59.8 45.6 57.8C43.4667 55.8 42.2667 52.2 42 47C42 46.3333 42 44.3333 42 41C42 37.6667 42.2 34.4 42.6 31.2C43 27.8667 43.6667 24.8 44.6 22C47.8 14.9333 51.6667 8.06666 56.2 1.39999C56.6 0.86666 57.1333 0.599993 57.8 0.599993C59.1333 0.599993 60.6667 1.39999 62.4 3C64.2667 4.59999 65.3333 5.66666 65.6 6.19999C65.2 7.53332 64.2 9.13332 62.6 11C62.4667 11.2667 61.6667 12.4 60.2 14.4C58.8667 16.2667 57.7333 18.4667 56.8 21C56.2667 24.2 56 27.0667 56 29.6C56 31.0667 56.1333 32.2 56.4 33C57.2 34.3333 59.5333 35.3333 63.4 36ZM20 34.2C24 35.4 26.5333 37.3333 27.6 40C28.8 42.6667 29.4 46.4 29.4 51.2C29.4 54.2667 27.9333 56.8667 25 59C22.0667 61.1333 18.8667 62.2 15.4 62.2C11.5333 62.2 8.2 61.0667 5.4 58.8C2.73333 56.4 1.06667 52.4667 0.4 47C0.4 46.3333 0.4 44.3333 0.4 41C0.4 37.6667 0.6 34.4 1 31.2C1.4 27.8667 2.06667 24.8 3 22C5.66667 14.6667 9.2 7.79999 13.6 1.39999C14.2667 0.733329 14.9333 0.399996 15.6 0.399996C16.2667 0.399996 17.0667 0.733329 18 1.39999L21.6 3.59999C24 4.93332 25.2 5.79999 25.2 6.19999C25.0667 7.26666 24.2 8.79999 22.6 10.8C19.6667 14.5333 17.8667 18 17.2 21.2C16.9333 22.8 16.8 24.8 16.8 27.2C16.8 31.2 17.8667 33.5333 20 34.2Z"
        fill="#C4C4C4"/>
</svg>
