<svg width="72" height="62" viewBox="0 0 72 62" fill="none" xmlns="http://www.w3.org/2000/svg">
<path d="M7.8 26.4C5 24.9333 3.13333 23.2 2.2 21.2C1.26667 19.0667 0.866667 15.7333 1 11.2C2.33333 6.79999 4.13333 3.99999 6.4 2.79999C8.66667 1.46666 12.2 0.599993 17 0.199998C20.3333 0.33333 23.1333 1.46666 25.4 3.59999C27.8 5.73333 29.2 8.73333 29.6 12.6C29.8667 17.1333 30 20.4 30 22.4C30 28.9333 29.1333 34.8 27.4 40C24.6 47.4667 21.0667 54.2667 16.8 60.4C16.4 61.0667 15.8667 61.4 15.2 61.4C13.8667 61.4 12.0667 60.4 9.8 58.4C7.66667 56.4 6.4 54.9333 6 54C6.13333 53.2 6.93333 51.8 8.4 49.8C11.4667 45.8 13.3333 42.2667 14 39.2C14.6667 34.4 14.8667 31.4 14.6 30.2C14.4667 29 12.2 27.7333 7.8 26.4ZM50.6 28C47 26.1333 44.7333 24.2667 43.8 22.4C43 20.4 42.6 18 42.6 15.2C42.6 13.3333 42.4667 12 42.2 11.2C42.2 8.13332 43.6667 5.53332 46.6 3.39999C49.5333 1.26666 52.7333 0.199998 56.2 0.199998C60.0667 0.199998 63.3333 1.39999 66 3.79999C68.8 6.06666 70.5333 9.93333 71.2 15.4C71.2 21 71.0667 25.5333 70.8 29C70.5333 32.3333 69.6667 35.9333 68.2 39.8C65.9333 47 62.5333 53.8667 58 60.4C57.2 61.2 56.2667 61.6 55.2 61.6C53.8667 61.6 52.4667 61.2 51 60.4C49.5333 59.6 48.3333 58.7333 47.4 57.8C46.4667 56.7333 46.1333 56 46.4 55.6C46.5333 54.6667 47.2 53.4 48.4 51.8C50.1333 49.5333 51.4667 47.2 52.4 44.8C53.3333 42.4 53.8 39.1333 53.8 35C53.8 30.8667 52.7333 28.5333 50.6 28Z" fill="#E5E5E5"/>
</svg>
